<?xml version="1.0" standalone="no"?>
<!DOCTYPE svg PUBLIC "-//W3C//DTD SVG 20010904//EN"
 "http://www.w3.org/TR/2001/REC-SVG-20010904/DTD/svg10.dtd">
<svg version="1.0" xmlns="http://www.w3.org/2000/svg"
 width="152.000000pt" height="143.000000pt" viewBox="0 0 152.000000 143.000000"
 preserveAspectRatio="xMidYMid meet">
<metadata>
Created by potrace 1.16, written by Peter Selinger 2001-2019
</metadata>
<g transform="translate(0.000000,143.000000) scale(0.100000,-0.100000)"
fill="#000000" stroke="none">
<path d="M0 715 l0 -715 760 0 760 0 0 715 0 715 -760 0 -760 0 0 -715z m785
590 c33 -9 79 -25 102 -36 40 -19 93 -64 93 -79 0 -4 -89 -96 -198 -204 l-198
-197 -33 -106 c-17 -58 -30 -107 -28 -109 2 -2 43 10 92 26 49 17 92 30 97 30
14 0 10 -348 -4 -356 -7 -4 -78 -8 -158 -7 -161 0 -265 21 -346 68 -78 46 -74
23 -74 461 l0 392 25 30 c32 38 123 78 221 97 101 19 323 14 409 -10z m363
-67 c10 -10 17 -10 31 -1 17 11 19 8 24 -20 5 -30 -7 -44 -245 -283 -225 -226
-254 -252 -300 -267 -29 -9 -54 -15 -56 -12 -2 2 4 28 13 57 16 48 39 75 259
296 132 133 246 242 251 242 6 0 17 -6 23 -12z m102 -540 l160 -91 0 -186 0
-186 -160 -93 -160 -93 -160 93 -160 93 0 186 0 186 48 26 c26 15 97 56 157
92 61 35 111 64 113 65 1 0 74 -41 162 -92z"/>
</g>
</svg>
