<svg width="367" height="180" version="1.1" xmlns="http://www.w3.org/2000/svg" desc="Created with imagetracer.js version 1.2.6" ><path fill="rgb(0,0,0)" stroke="rgb(0,0,0)" stroke-width="1" opacity="0" d="M 0 0 L 367 0 L 367 180 L 0 180 L 0 0 Z M 34 45 L 34 136 L 35 136 L 334 136 L 334 46 L 334 45 L 34 45 Z " /><path fill="rgb(255,82,19)" stroke="rgb(255,82,19)" stroke-width="1" opacity="1" d="M 77.5 66 L 84 66.5 L 77.5 67 L 77.5 66 Z " /><path fill="rgb(255,82,19)" stroke="rgb(255,82,19)" stroke-width="1" opacity="1" d="M 44.5 67 L 51 67.5 L 44.5 68 L 44.5 67 Z " /><path fill="rgb(255,82,19)" stroke="rgb(255,82,19)" stroke-width="1" opacity="1" d="M 65.5 67 L 72 67.5 L 65.5 68 L 65.5 67 Z " /><path fill="rgb(255,82,19)" stroke="rgb(255,82,19)" stroke-width="1" opacity="1" d="M 85.5 68 L 86.5 77 L 88.5 76 L 88.5 77 L 85 78 L 85.5 68 Z " /><path fill="rgb(255,82,19)" stroke="rgb(255,82,19)" stroke-width="1" opacity="1" d="M 42.5 69 L 43 92.5 L 42 92.5 L 42.5 69 Z " /><path fill="rgb(255,82,19)" stroke="rgb(255,82,19)" stroke-width="1" opacity="1" d="M 52.5 69 L 53 93.5 L 54.5 95 L 59.5 96 L 62 95 L 63 92.5 L 63.5 69 L 64 92.5 L 61.5 96 L 56.5 97 L 52 93.5 L 52.5 69 Z " /><path fill="rgb(255,82,19)" stroke="rgb(255,82,19)" stroke-width="1" opacity="1" d="M 310.5 71 L 317 71.5 L 310.5 72 L 310.5 71 Z " /><path fill="rgb(255,82,19)" stroke="rgb(255,82,19)" stroke-width="1" opacity="1" d="M 308.5 73 L 309 77 L 307 76.5 L 308.5 73 Z " /><path fill="rgb(255,82,19)" stroke="rgb(255,82,19)" stroke-width="1" opacity="1" d="M 318.5 73 L 319 76 L 322 76.5 L 318 77 L 318.5 73 Z " /><path fill="rgb(255,82,19)" stroke="rgb(255,82,19)" stroke-width="1" opacity="1" d="M 95.5 76 Q 101.6 77.4 104 82.5 L 105.5 85 L 110.5 78 L 112.5 77 L 111.5 79 L 108 81.5 L 105.5 89 L 103 82.5 L 98.5 78 Q 94.8 77.8 95.5 76 Z " /><path fill="rgb(255,82,19)" stroke="rgb(255,82,19)" stroke-width="1" opacity="1" d="M 135.5 76 L 143.5 77 L 145.5 76 L 145.5 77 L 142.5 79 L 142 77 L 135.5 77 L 135.5 76 Z " /><path fill="rgb(255,82,19)" stroke="rgb(255,82,19)" stroke-width="1" opacity="1" d="M 173.5 76 L 181 76.5 L 173.5 77 L 173.5 76 Z " /><path fill="rgb(255,82,19)" stroke="rgb(255,82,19)" stroke-width="1" opacity="1" d="M 189.5 76 L 196 76.5 L 189.5 77 L 189.5 76 Z " /><path fill="rgb(255,82,19)" stroke="rgb(255,82,19)" stroke-width="1" opacity="1" d="M 215.5 76 L 218.5 77 Q 220 74.5 225.5 76 L 225.5 77 Q 218.5 75.5 219 78.5 L 216.5 77 L 215.5 76 Z " /><path fill="rgb(255,82,19)" stroke="rgb(255,82,19)" stroke-width="1" opacity="1" d="M 245.5 76 L 249 78.5 L 246.5 77 L 245.5 76 Z " /><path fill="rgb(255,82,19)" stroke="rgb(255,82,19)" stroke-width="1" opacity="1" d="M 249.5 76 L 256 76.5 L 249.5 77 L 249.5 76 Z " /><path fill="rgb(255,82,19)" stroke="rgb(255,82,19)" stroke-width="1" opacity="1" d="M 276.5 76 L 284 81.5 L 279.5 78 Q 275.7 77.8 276.5 76 Z " /><path fill="rgb(255,82,19)" stroke="rgb(255,82,19)" stroke-width="1" opacity="1" d="M 300.5 76 L 305.5 79 L 307 78.5 L 306.5 83 L 303.5 78 Q 299.8 77.8 300.5 76 Z " /><path fill="rgb(255,82,19)" stroke="rgb(255,82,19)" stroke-width="1" opacity="1" d="M 125.5 77 L 130 80.5 L 131 82.5 L 129 81.5 L 127.5 79 L 125.5 77 Z " /><path fill="rgb(255,82,19)" stroke="rgb(255,82,19)" stroke-width="1" opacity="1" d="M 154.5 77 L 151 81.5 Q 149.5 87 152 88.5 L 150 87.5 Q 148.5 78.5 154.5 77 Z " /><path fill="rgb(255,82,19)" stroke="rgb(255,82,19)" stroke-width="1" opacity="1" d="M 167.5 77 L 172 80.5 L 172.5 78 L 173 97.5 L 170 99.5 Q 172.3 98.3 171 93.5 L 167.5 89 L 162 86.5 L 164 85.5 L 160.5 84 L 160.5 86 Q 157.5 86.7 159 83 L 166.5 85 L 169.5 83 L 169.5 84 L 164 86.5 L 171 91.5 L 171.5 93 L 172 82.5 L 167.5 77 Z " /><path fill="rgb(255,82,19)" stroke="rgb(255,82,19)" stroke-width="1" opacity="1" d="M 205.5 77 L 204.5 79 L 201 81.5 L 198 88.5 L 198 92.5 Q 199.5 99.4 204.5 103 Q 207.5 106 214.5 105 L 217.5 103 L 215.5 106 L 208.5 106 L 200 99.5 L 198.5 96 L 197.5 103 L 197 78.5 L 198 78.5 L 198.5 85 L 203.5 78 L 205.5 77 Z " /><path fill="rgb(255,82,19)" stroke="rgb(255,82,19)" stroke-width="1" opacity="1" d="M 265.5 77 L 263.5 80 L 262 79.5 L 265.5 77 Z " /><path fill="rgb(255,82,19)" stroke="rgb(255,82,19)" stroke-width="1" opacity="1" d="M 290.5 77 L 287 81.5 L 286 85.5 L 287 87.5 L 285 88.5 L 284 83.5 L 286 83.5 L 286 81.5 L 290.5 77 Z " /><path fill="rgb(255,82,19)" stroke="rgb(255,82,19)" stroke-width="1" opacity="1" d="M 133.5 78 L 134 102.5 L 133 102.5 L 132 87.5 L 133 86.5 L 133.5 78 Z " /><path fill="rgb(255,82,19)" stroke="rgb(255,82,19)" stroke-width="1" opacity="1" d="M 181.5 78 L 182 94.5 L 184 96.5 L 182 97 L 181 94.5 L 181.5 78 Z " /><path fill="rgb(255,82,19)" stroke="rgb(255,82,19)" stroke-width="1" opacity="1" d="M 187.5 78 L 188 95.5 L 185.5 97 L 185.5 96 L 187 95.5 L 187.5 78 Z " /><path fill="rgb(255,82,19)" stroke="rgb(255,82,19)" stroke-width="1" opacity="1" d="M 227.5 78 L 228.5 85 L 233.5 78 L 231 81.5 L 228 91.5 Q 229.2 99.3 234.5 103 Q 237.5 106 244.5 105 L 247.5 103 L 245.5 106 L 238.5 106 L 230 99.5 L 228.5 96 L 227.5 102 L 227.5 78 Z " /><path fill="rgb(255,82,19)" stroke="rgb(255,82,19)" stroke-width="1" opacity="1" d="M 257.5 78 L 259 94.5 L 257.5 102 L 257.5 78 Z " /><path fill="rgb(255,82,19)" stroke="rgb(255,82,19)" stroke-width="1" opacity="1" d="M 322.5 78 L 323 82.5 L 322 82.5 L 322.5 78 Z " /><path fill="rgb(255,82,19)" stroke="rgb(255,82,19)" stroke-width="1" opacity="1" d="M 261.5 81 L 260.5 83 L 261.5 81 Z " /><path fill="rgb(255,82,19)" stroke="rgb(255,82,19)" stroke-width="1" opacity="1" d="M 117.5 83 Q 122.3 82.3 123 85.5 L 122.5 87 L 114.5 87 L 115 85.5 Q 114.3 83.3 116.5 84 L 117.5 83 Z M 118 84 L 117 86 L 122 86 Q 121 83 118 84 Z " /><path fill="rgb(255,82,19)" stroke="rgb(255,82,19)" stroke-width="1" opacity="1" d="M 270.5 83 L 276 84 L 277 86.5 L 267.5 87 L 270.5 83 Z M 271 84 L 270 86 L 275 86 Q 274 83 271 84 Z " /><path fill="rgb(255,82,19)" stroke="rgb(255,82,19)" stroke-width="1" opacity="1" d="M 295 83 L 302.5 85 L 305 83.5 L 300 86.5 L 306 90.5 L 303.5 89 L 298 86.5 L 300 85.5 L 296.5 84 L 296.5 86 Q 293.5 86.7 295 83 Z " /><path fill="rgb(255,82,19)" stroke="rgb(255,82,19)" stroke-width="1" opacity="1" d="M 308.5 83 L 309 95.5 L 307.5 98 L 307 94.5 L 308 93.5 L 308.5 83 Z " /><path fill="rgb(255,82,19)" stroke="rgb(255,82,19)" stroke-width="1" opacity="1" d="M 318.5 83 L 319 95.5 L 320 96.5 L 318 97 L 318.5 83 Z " /><path fill="rgb(255,82,19)" stroke="rgb(255,82,19)" stroke-width="1" opacity="1" d="M 87.5 84 L 90 84.5 L 86 87.5 Q 84.5 94.5 88.5 96 L 90 96.5 L 87.5 97 Q 83.8 94.8 85 87.5 L 87.5 84 Z " /><path fill="rgb(255,82,19)" stroke="rgb(255,82,19)" stroke-width="1" opacity="1" d="M 91.5 84 L 95 85.5 L 96 93.5 L 93.5 97 L 91 96.5 L 95 93.5 Q 96.5 86.5 92.5 85 L 91.5 84 Z " /><path fill="rgb(255,82,19)" stroke="rgb(255,82,19)" stroke-width="1" opacity="1" d="M 210.5 84 L 212 84.5 L 208.5 87 L 208 85 L 210.5 84 Z " /><path fill="rgb(255,82,19)" stroke="rgb(255,82,19)" stroke-width="1" opacity="1" d="M 214.5 84 L 218 86.5 L 217.5 89 L 215.5 85 L 214.5 84 Z " /><path fill="rgb(255,82,19)" stroke="rgb(255,82,19)" stroke-width="1" opacity="1" d="M 240.5 84 L 242 84.5 L 238 87.5 Q 236.5 94.5 240.5 96 L 242 96.5 L 240.5 97 Q 235.5 95.5 237 87.5 L 238 85 L 240.5 84 Z " /><path fill="rgb(255,82,19)" stroke="rgb(255,82,19)" stroke-width="1" opacity="1" d="M 244.5 84 L 248 86.5 Q 250 95 245.5 97 L 244 96.5 L 247 94.5 L 247 86.5 L 245.5 85 L 244.5 84 Z " /><path fill="rgb(255,82,19)" stroke="rgb(255,82,19)" stroke-width="1" opacity="1" d="M 144 85 L 146 85.5 L 143.5 90 L 143 87.5 L 144 85 Z " /><path fill="rgb(255,82,19)" stroke="rgb(255,82,19)" stroke-width="1" opacity="1" d="M 207.5 88 L 208 92.5 L 207 92.5 L 207.5 88 Z " /><path fill="rgb(255,82,19)" stroke="rgb(255,82,19)" stroke-width="1" opacity="1" d="M 287.5 89 L 294 93.5 L 292.5 94 L 287.5 89 Z " /><path fill="rgb(255,82,19)" stroke="rgb(255,82,19)" stroke-width="1" opacity="1" d="M 152.5 90 L 158 93.5 L 156.5 94 L 152.5 90 Z " /><path fill="rgb(255,82,19)" stroke="rgb(255,82,19)" stroke-width="1" opacity="1" d="M 72.5 92 L 73 95.5 L 67.5 103 L 65.5 104 L 66.5 102 L 70 99.5 L 72.5 92 Z " /><path fill="rgb(255,82,19)" stroke="rgb(255,82,19)" stroke-width="1" opacity="1" d="M 105.5 92 L 106 96 Q 103 97.3 104 93.5 L 105.5 92 Z " /><path fill="rgb(255,82,19)" stroke="rgb(255,82,19)" stroke-width="1" opacity="1" d="M 217.5 92 L 218 94.5 L 214.5 97 L 214.5 96 L 217 94.5 L 217.5 92 Z " /><path fill="rgb(255,82,19)" stroke="rgb(255,82,19)" stroke-width="1" opacity="1" d="M 114 93 L 131 93.5 L 128 94.5 L 129.5 97 L 126.5 94 L 115.5 94 L 116.5 96 L 119 96.5 L 116.5 97 L 114 93 Z " /><path fill="rgb(255,82,19)" stroke="rgb(255,82,19)" stroke-width="1" opacity="1" d="M 267.5 93 L 285 93.5 L 281 94.5 L 284 96.5 L 282.5 96 Q 279 92 269.5 94 L 270.5 96 L 272 96.5 L 270.5 97 L 268 96 L 267.5 93 Z " /><path fill="rgb(255,82,19)" stroke="rgb(255,82,19)" stroke-width="1" opacity="1" d="M 154.5 94 L 151.5 98 L 154.5 94 Z " /><path fill="rgb(255,82,19)" stroke="rgb(255,82,19)" stroke-width="1" opacity="1" d="M 159.5 94 L 163 95 L 161.5 98 L 159 97.5 L 162 96.5 L 159.5 94 Z " /><path fill="rgb(255,82,19)" stroke="rgb(255,82,19)" stroke-width="1" opacity="1" d="M 208.5 94 L 212 96.5 L 210.5 97 L 208.5 94 Z " /><path fill="rgb(255,82,19)" stroke="rgb(255,82,19)" stroke-width="1" opacity="1" d="M 290.5 94 L 287.5 98 L 284.5 100 L 279.5 104 L 279.5 103 L 290.5 94 Z " /><path fill="rgb(255,82,19)" stroke="rgb(255,82,19)" stroke-width="1" opacity="1" d="M 295.5 94 L 299 95 L 297.5 98 L 292 96.5 L 293.5 96 L 297.5 97 L 296.5 95 L 295.5 94 Z " /><path fill="rgb(255,82,19)" stroke="rgb(255,82,19)" stroke-width="1" opacity="1" d="M 123.5 95 L 125 95.5 L 121.5 97 L 121.5 96 L 123.5 95 Z " /><path fill="rgb(255,82,19)" stroke="rgb(255,82,19)" stroke-width="1" opacity="1" d="M 156.5 95 L 157.5 97 Q 154.7 97.7 156.5 95 Z " /><path fill="rgb(255,82,19)" stroke="rgb(255,82,19)" stroke-width="1" opacity="1" d="M 277.5 95 L 276.5 97 L 274 96.5 L 277.5 95 Z " /><path fill="rgb(255,82,19)" stroke="rgb(255,82,19)" stroke-width="1" opacity="1" d="M 106.5 97 L 110.5 102 L 113 103.5 L 111.5 103 L 107 99.5 L 106.5 97 Z " /><path fill="rgb(255,82,19)" stroke="rgb(255,82,19)" stroke-width="1" opacity="1" d="M 309.5 97 L 311 100.5 L 309 99.5 L 309.5 97 Z " /><path fill="rgb(255,82,19)" stroke="rgb(255,82,19)" stroke-width="1" opacity="1" d="M 260.5 98 L 261.5 100 L 260.5 98 Z " /><path fill="rgb(255,82,19)" stroke="rgb(255,82,19)" stroke-width="1" opacity="1" d="M 45.5 99 L 48.5 103 L 45.5 99 Z " /><path fill="rgb(255,82,19)" stroke="rgb(255,82,19)" stroke-width="1" opacity="1" d="M 102.5 99 L 98.5 104 L 95.5 105 L 95.5 104 L 102.5 99 Z " /><path fill="rgb(255,82,19)" stroke="rgb(255,82,19)" stroke-width="1" opacity="1" d="M 173.5 99 L 177 103.5 L 174 101.5 L 173.5 99 Z " /><path fill="rgb(255,82,19)" stroke="rgb(255,82,19)" stroke-width="1" opacity="1" d="M 306.5 99 L 306 100.5 L 304.5 103 L 302.5 104 L 303.5 102 Q 305.8 102.8 305 100.5 L 306.5 99 Z " /><path fill="rgb(255,82,19)" stroke="rgb(255,82,19)" stroke-width="1" opacity="1" d="M 130.5 100 L 128.5 103 L 123.5 105 L 123.5 104 L 130.5 100 Z " /><path fill="rgb(255,82,19)" stroke="rgb(255,82,19)" stroke-width="1" opacity="1" d="M 151.5 101 L 157 104.5 L 155.5 105 L 151.5 101 Z " /><path fill="rgb(255,82,19)" stroke="rgb(255,82,19)" stroke-width="1" opacity="1" d="M 169.5 101 L 167.5 104 L 164.5 105 L 164.5 104 L 169.5 101 Z " /><path fill="rgb(255,82,19)" stroke="rgb(255,82,19)" stroke-width="1" opacity="1" d="M 263.5 101 L 269 104.5 L 267.5 105 L 263.5 101 Z " /><path fill="rgb(255,82,19)" stroke="rgb(255,82,19)" stroke-width="1" opacity="1" d="M 286.5 101 L 290 103.5 L 288.5 103 L 286.5 101 Z " /><path fill="rgb(255,82,19)" stroke="rgb(255,82,19)" stroke-width="1" opacity="1" d="M 84.5 102 L 85.5 104 L 84.5 102 Z " /><path fill="rgb(255,82,19)" stroke="rgb(255,82,19)" stroke-width="1" opacity="1" d="M 311.5 102 L 316 104.5 L 314.5 105 L 311.5 102 Z " /><path fill="rgb(255,82,19)" stroke="rgb(255,82,19)" stroke-width="1" opacity="1" d="M 187.5 103 L 186.5 105 L 185 104.5 L 187.5 103 Z " /><path fill="rgb(255,82,19)" stroke="rgb(255,82,19)" stroke-width="1" opacity="1" d="M 226.5 103 L 227 105.5 L 220.5 113 L 219 112.5 L 225 107.5 L 226.5 103 Z " /><path fill="rgb(255,82,19)" stroke="rgb(255,82,19)" stroke-width="1" opacity="1" d="M 256.5 103 L 257 105.5 L 251.5 112 L 255 107.5 L 256.5 103 Z " /><path fill="rgb(255,82,19)" stroke="rgb(255,82,19)" stroke-width="1" opacity="1" d="M 77.5 104 L 84 104.5 L 77.5 105 L 77.5 104 Z " /><path fill="rgb(255,82,19)" stroke="rgb(255,82,19)" stroke-width="1" opacity="1" d="M 135.5 104 L 142 104.5 L 135.5 105 L 135.5 104 Z " /><path fill="rgb(255,82,19)" stroke="rgb(255,82,19)" stroke-width="1" opacity="1" d="M 189.5 104 L 196 104.5 L 189.5 105 L 189.5 104 Z " /><path fill="rgb(255,82,19)" stroke="rgb(255,82,19)" stroke-width="1" opacity="1" d="M 203.5 105 L 203 106.5 L 202.5 108 L 202 106.5 L 203.5 105 Z " /><path fill="rgb(255,82,19)" stroke="rgb(255,82,19)" stroke-width="1" opacity="1" d="M 233.5 105 L 233 106.5 L 232.5 108 L 232 106.5 L 233.5 105 Z " /><path fill="rgb(255,82,19)" stroke="rgb(255,82,19)" stroke-width="1" opacity="1" d="M 231.5 109 L 233 111.5 L 231 110.5 L 231.5 109 Z " /><path fill="rgb(255,82,19)" stroke="rgb(255,82,19)" stroke-width="1" opacity="1" d="M 204.5 112 L 218 113.5 L 206.5 114 L 204.5 112 Z " /><path fill="rgb(255,82,19)" stroke="rgb(255,82,19)" stroke-width="1" opacity="1" d="M 234.5 112 L 248 113.5 L 236.5 114 L 234.5 112 Z " /><path fill="rgb(255,118,71)" stroke="rgb(255,118,71)" stroke-width="1" opacity="1" d="M 34.5 45 L 334 45.5 L 34.5 46 L 34.5 45 Z " /><path fill="rgb(255,118,71)" stroke="rgb(255,118,71)" stroke-width="1" opacity="1" d="M 34.5 47 L 35 133.5 L 34 133.5 L 34.5 47 Z " /><path fill="rgb(255,118,71)" stroke="rgb(255,118,71)" stroke-width="1" opacity="1" d="M 333.5 47 L 334 133.5 L 333 133.5 L 333.5 47 Z " /><path fill="rgb(255,118,71)" stroke="rgb(255,118,71)" stroke-width="1" opacity="1" d="M 77.5 67 L 85 67 L 85 78.5 L 84 78.5 L 84 68 L 77.5 68 L 77.5 67 Z " /><path fill="rgb(255,118,71)" stroke="rgb(255,118,71)" stroke-width="1" opacity="1" d="M 44.5 68 Q 50.5 66.5 52 69.5 L 51.5 93 L 51 69 L 44.5 69 L 44 69.5 L 44 91.5 L 43 91.5 L 43 69.5 L 44.5 68 Z " /><path fill="rgb(255,118,71)" stroke="rgb(255,118,71)" stroke-width="1" opacity="1" d="M 65.5 68 L 72 68.5 L 65 69 L 64.5 92 L 64 69.5 L 65.5 68 Z " /><path fill="rgb(255,118,71)" stroke="rgb(255,118,71)" stroke-width="1" opacity="1" d="M 309.5 72 L 310 75.5 L 309 75.5 L 309.5 72 Z " /><path fill="rgb(255,118,71)" stroke="rgb(255,118,71)" stroke-width="1" opacity="1" d="M 316.5 72 L 318 75.5 L 317 75.5 L 316.5 72 Z " /><path fill="rgb(255,118,71)" stroke="rgb(255,118,71)" stroke-width="1" opacity="1" d="M 134 77 L 142 77.5 L 135 78 L 135 102.5 Q 135.3 103.8 141.5 103 L 141.5 104 L 134.5 104 L 134 103.5 L 134 77 Z " /><path fill="rgb(255,118,71)" stroke="rgb(255,118,71)" stroke-width="1" opacity="1" d="M 144.5 77 L 146 77.5 L 142.5 80 L 144.5 77 Z " /><path fill="rgb(255,118,71)" stroke="rgb(255,118,71)" stroke-width="1" opacity="1" d="M 173.5 77 L 181 77 L 181 93.5 L 180 93.5 L 180 78 L 173.5 78 L 173.5 77 Z " /><path fill="rgb(255,118,71)" stroke="rgb(255,118,71)" stroke-width="1" opacity="1" d="M 189.5 77 Q 195.5 75.5 197 78.5 L 197 102.5 L 195.5 104 L 189 103.5 L 196 103 L 196 78.5 L 195.5 78 L 189 78 L 189 95.5 L 186.5 98 L 185 97.5 L 188 95.5 L 188 78.5 L 189.5 77 Z " /><path fill="rgb(255,118,71)" stroke="rgb(255,118,71)" stroke-width="1" opacity="1" d="M 215.5 77 L 218 78.5 L 216.5 78 L 215.5 77 Z " /><path fill="rgb(255,118,71)" stroke="rgb(255,118,71)" stroke-width="1" opacity="1" d="M 219.5 77 Q 225.5 75.5 227 78.5 L 226.5 102 L 226 78 L 219.5 78 L 219.5 77 Z " /><path fill="rgb(255,118,71)" stroke="rgb(255,118,71)" stroke-width="1" opacity="1" d="M 245.5 77 L 248 78.5 L 246.5 78 L 245.5 77 Z " /><path fill="rgb(255,118,71)" stroke="rgb(255,118,71)" stroke-width="1" opacity="1" d="M 249.5 77 L 256 77.5 L 249.5 78 L 249.5 77 Z " /><path fill="rgb(255,118,71)" stroke="rgb(255,118,71)" stroke-width="1" opacity="1" d="M 307.5 77 L 310 77.5 L 307.5 78 L 307.5 77 Z " /><path fill="rgb(255,118,71)" stroke="rgb(255,118,71)" stroke-width="1" opacity="1" d="M 317.5 77 L 322 77.5 L 317.5 78 L 317.5 77 Z " /><path fill="rgb(255,118,71)" stroke="rgb(255,118,71)" stroke-width="1" opacity="1" d="M 98.5 78 L 101.5 82 L 98.5 78 Z " /><path fill="rgb(255,118,71)" stroke="rgb(255,118,71)" stroke-width="1" opacity="1" d="M 154.5 78 L 152.5 81 L 154.5 78 Z " /><path fill="rgb(255,118,71)" stroke="rgb(255,118,71)" stroke-width="1" opacity="1" d="M 167.5 78 L 169.5 81 L 167.5 78 Z " /><path fill="rgb(255,118,71)" stroke="rgb(255,118,71)" stroke-width="1" opacity="1" d="M 265.5 78 L 264.5 80 L 265.5 78 Z " /><path fill="rgb(255,118,71)" stroke="rgb(255,118,71)" stroke-width="1" opacity="1" d="M 279.5 78 L 282.5 82 L 279.5 78 Z " /><path fill="rgb(255,118,71)" stroke="rgb(255,118,71)" stroke-width="1" opacity="1" d="M 110.5 79 L 109.5 81 L 110.5 79 Z " /><path fill="rgb(255,118,71)" stroke="rgb(255,118,71)" stroke-width="1" opacity="1" d="M 233.5 79 L 232.5 81 L 233.5 79 Z " /><path fill="rgb(255,118,71)" stroke="rgb(255,118,71)" stroke-width="1" opacity="1" d="M 304.5 79 L 306 81.5 L 302 84.5 L 305 80.5 L 304.5 79 Z " /><path fill="rgb(255,118,71)" stroke="rgb(255,118,71)" stroke-width="1" opacity="1" d="M 288.5 80 L 288 81.5 L 287.5 83 L 287 81.5 L 288.5 80 Z " /><path fill="rgb(255,118,71)" stroke="rgb(255,118,71)" stroke-width="1" opacity="1" d="M 151.5 82 L 153 88.5 L 151 87.5 L 151.5 82 Z " /><path fill="rgb(255,118,71)" stroke="rgb(255,118,71)" stroke-width="1" opacity="1" d="M 163.5 83 L 164.5 85 L 163.5 83 Z " /><path fill="rgb(255,118,71)" stroke="rgb(255,118,71)" stroke-width="1" opacity="1" d="M 167.5 83 L 166.5 85 L 167.5 83 Z " /><path fill="rgb(255,118,71)" stroke="rgb(255,118,71)" stroke-width="1" opacity="1" d="M 269.5 83 L 267.5 86 L 269.5 83 Z " /><path fill="rgb(255,118,71)" stroke="rgb(255,118,71)" stroke-width="1" opacity="1" d="M 275.5 83 L 276.5 85 L 275.5 83 Z " /><path fill="rgb(255,118,71)" stroke="rgb(255,118,71)" stroke-width="1" opacity="1" d="M 299.5 83 L 300.5 85 L 299.5 83 Z " /><path fill="rgb(255,118,71)" stroke="rgb(255,118,71)" stroke-width="1" opacity="1" d="M 309.5 83 L 310 95.5 L 309 95.5 L 309.5 83 Z " /><path fill="rgb(255,118,71)" stroke="rgb(255,118,71)" stroke-width="1" opacity="1" d="M 216.5 84 L 217.5 86 L 216.5 84 Z " /><path fill="rgb(255,118,71)" stroke="rgb(255,118,71)" stroke-width="1" opacity="1" d="M 246.5 84 L 247.5 86 L 246.5 84 Z " /><path fill="rgb(255,118,71)" stroke="rgb(255,118,71)" stroke-width="1" opacity="1" d="M 114.5 85 L 114.5 87 L 124 87.5 L 114.5 88 Q 111.5 86.5 114.5 85 Z " /><path fill="rgb(255,118,71)" stroke="rgb(255,118,71)" stroke-width="1" opacity="1" d="M 284.5 85 L 285 87.5 L 284 87.5 L 284.5 85 Z " /><path fill="rgb(255,118,71)" stroke="rgb(255,118,71)" stroke-width="1" opacity="1" d="M 317.5 85 L 318 97 L 320 97.5 L 318.5 98 L 317 96.5 L 317.5 85 Z " /><path fill="rgb(255,118,71)" stroke="rgb(255,118,71)" stroke-width="1" opacity="1" d="M 259.5 86 L 260 88.5 L 259 88.5 L 259.5 86 Z " /><path fill="rgb(255,118,71)" stroke="rgb(255,118,71)" stroke-width="1" opacity="1" d="M 277.5 86 L 276.5 88 L 267 87.5 L 276.5 87 L 277.5 86 Z " /><path fill="rgb(255,118,71)" stroke="rgb(255,118,71)" stroke-width="1" opacity="1" d="M 84.5 87 L 85 93.5 L 84 93.5 L 84.5 87 Z " /><path fill="rgb(255,118,71)" stroke="rgb(255,118,71)" stroke-width="1" opacity="1" d="M 131.5 87 L 132 93 L 114.5 93 L 113.5 94 L 113 92 L 130.5 92 L 131.5 87 Z " /><path fill="rgb(255,118,71)" stroke="rgb(255,118,71)" stroke-width="1" opacity="1" d="M 248.5 87 L 249 93.5 L 248 93.5 L 248.5 87 Z " /><path fill="rgb(255,118,71)" stroke="rgb(255,118,71)" stroke-width="1" opacity="1" d="M 96.5 88 L 97 92.5 L 96 92.5 L 96.5 88 Z " /><path fill="rgb(255,118,71)" stroke="rgb(255,118,71)" stroke-width="1" opacity="1" d="M 206.5 88 L 207 92.5 L 206 92.5 L 206.5 88 Z " /><path fill="rgb(255,118,71)" stroke="rgb(255,118,71)" stroke-width="1" opacity="1" d="M 236.5 88 L 237 92.5 L 236 92.5 L 236.5 88 Z " /><path fill="rgb(255,118,71)" stroke="rgb(255,118,71)" stroke-width="1" opacity="1" d="M 104.5 89 Q 107.5 90.5 104.5 92 L 104.5 89 Z " /><path fill="rgb(255,118,71)" stroke="rgb(255,118,71)" stroke-width="1" opacity="1" d="M 167.5 89 L 169.5 92 L 167.5 89 Z " /><path fill="rgb(255,118,71)" stroke="rgb(255,118,71)" stroke-width="1" opacity="1" d="M 288.5 89 L 289.5 91 L 288.5 89 Z " /><path fill="rgb(255,118,71)" stroke="rgb(255,118,71)" stroke-width="1" opacity="1" d="M 291.5 91 L 294 92.5 L 292.5 93 L 291.5 91 Z " /><path fill="rgb(255,118,71)" stroke="rgb(255,118,71)" stroke-width="1" opacity="1" d="M 259.5 92 L 260 94.5 L 259 94.5 L 259.5 92 Z " /><path fill="rgb(255,118,71)" stroke="rgb(255,118,71)" stroke-width="1" opacity="1" d="M 267.5 92 L 285 92.5 L 267.5 93 L 267.5 92 Z " /><path fill="rgb(255,118,71)" stroke="rgb(255,118,71)" stroke-width="1" opacity="1" d="M 170.5 93 L 171 98.5 L 170 98.5 L 170.5 93 Z " /><path fill="rgb(255,118,71)" stroke="rgb(255,118,71)" stroke-width="1" opacity="1" d="M 63.5 94 L 61.5 97 L 63.5 94 Z " /><path fill="rgb(255,118,71)" stroke="rgb(255,118,71)" stroke-width="1" opacity="1" d="M 306.5 94 L 307 97.5 L 306 97.5 L 306.5 94 Z " /><path fill="rgb(255,118,71)" stroke="rgb(255,118,71)" stroke-width="1" opacity="1" d="M 114.5 95 L 115.5 97 L 114.5 95 Z " /><path fill="rgb(255,118,71)" stroke="rgb(255,118,71)" stroke-width="1" opacity="1" d="M 127.5 95 L 130.5 99 L 127.5 95 Z " /><path fill="rgb(255,118,71)" stroke="rgb(255,118,71)" stroke-width="1" opacity="1" d="M 154.5 95 L 151 99.5 L 153.5 103 L 150 99.5 L 154.5 95 Z " /><path fill="rgb(255,118,71)" stroke="rgb(255,118,71)" stroke-width="1" opacity="1" d="M 173.5 95 L 174 97.5 L 173 97.5 L 173.5 95 Z " /><path fill="rgb(255,118,71)" stroke="rgb(255,118,71)" stroke-width="1" opacity="1" d="M 217.5 95 L 216.5 97 L 217.5 95 Z " /><path fill="rgb(255,118,71)" stroke="rgb(255,118,71)" stroke-width="1" opacity="1" d="M 247.5 95 L 246.5 97 L 247.5 95 Z " /><path fill="rgb(255,118,71)" stroke="rgb(255,118,71)" stroke-width="1" opacity="1" d="M 278.5 95 L 277.5 97 L 278.5 95 Z " /><path fill="rgb(255,118,71)" stroke="rgb(255,118,71)" stroke-width="1" opacity="1" d="M 290.5 95 L 291.5 97 L 290.5 96 L 288 97.5 L 290.5 95 Z " /><path fill="rgb(255,118,71)" stroke="rgb(255,118,71)" stroke-width="1" opacity="1" d="M 123.5 96 L 122.5 98 L 121 97.5 L 123.5 96 Z " /><path fill="rgb(255,118,71)" stroke="rgb(255,118,71)" stroke-width="1" opacity="1" d="M 299.5 96 L 297.5 99 L 295 98.5 L 299.5 96 Z " /><path fill="rgb(255,118,71)" stroke="rgb(255,118,71)" stroke-width="1" opacity="1" d="M 159.5 98 L 162 98.5 L 159.5 99 L 159.5 98 Z " /><path fill="rgb(255,118,71)" stroke="rgb(255,118,71)" stroke-width="1" opacity="1" d="M 310.5 98 L 312 100.5 L 310 99.5 L 310.5 98 Z " /><path fill="rgb(255,118,71)" stroke="rgb(255,118,71)" stroke-width="1" opacity="1" d="M 322.5 98 L 323 103.5 L 322 103.5 L 322.5 98 Z " /><path fill="rgb(255,118,71)" stroke="rgb(255,118,71)" stroke-width="1" opacity="1" d="M 46.5 99 L 48.5 102 L 46.5 99 Z " /><path fill="rgb(255,118,71)" stroke="rgb(255,118,71)" stroke-width="1" opacity="1" d="M 101.5 99 L 99.5 102 L 101.5 99 Z " /><path fill="rgb(255,118,71)" stroke="rgb(255,118,71)" stroke-width="1" opacity="1" d="M 231.5 99 L 233.5 102 L 231.5 99 Z " /><path fill="rgb(255,118,71)" stroke="rgb(255,118,71)" stroke-width="1" opacity="1" d="M 283.5 99 L 281.5 102 L 283.5 99 Z " /><path fill="rgb(255,118,71)" stroke="rgb(255,118,71)" stroke-width="1" opacity="1" d="M 202.5 100 L 203.5 102 L 202.5 100 Z " /><path fill="rgb(255,118,71)" stroke="rgb(255,118,71)" stroke-width="1" opacity="1" d="M 175.5 101 L 176.5 103 L 175.5 101 Z " /><path fill="rgb(255,118,71)" stroke="rgb(255,118,71)" stroke-width="1" opacity="1" d="M 218.5 101 L 218.5 104 Q 215.5 102.5 218.5 101 Z " /><path fill="rgb(255,118,71)" stroke="rgb(255,118,71)" stroke-width="1" opacity="1" d="M 264.5 101 L 265.5 103 L 264.5 101 Z " /><path fill="rgb(255,118,71)" stroke="rgb(255,118,71)" stroke-width="1" opacity="1" d="M 97.5 102 L 96.5 104 L 95 103.5 L 97.5 102 Z " /><path fill="rgb(255,118,71)" stroke="rgb(255,118,71)" stroke-width="1" opacity="1" d="M 166.5 102 L 165.5 104 L 164 103.5 L 166.5 102 Z " /><path fill="rgb(255,118,71)" stroke="rgb(255,118,71)" stroke-width="1" opacity="1" d="M 187.5 102 L 186.5 104 L 185 103.5 L 187.5 102 Z " /><path fill="rgb(255,118,71)" stroke="rgb(255,118,71)" stroke-width="1" opacity="1" d="M 205.5 102 L 208 103.5 L 206.5 104 L 205.5 102 Z " /><path fill="rgb(255,118,71)" stroke="rgb(255,118,71)" stroke-width="1" opacity="1" d="M 247.5 102 Q 249.8 101.3 249 103.5 L 247.5 102 Z " /><path fill="rgb(255,118,71)" stroke="rgb(255,118,71)" stroke-width="1" opacity="1" d="M 77.5 103 L 84 103.5 L 77.5 104 L 77.5 103 Z " /><path fill="rgb(255,118,71)" stroke="rgb(255,118,71)" stroke-width="1" opacity="1" d="M 210.5 106 L 215 106.5 L 210.5 107 L 210.5 106 Z " /><path fill="rgb(255,118,71)" stroke="rgb(255,118,71)" stroke-width="1" opacity="1" d="M 240.5 106 L 245 106.5 L 240.5 107 L 240.5 106 Z " /><path fill="rgb(255,118,71)" stroke="rgb(255,118,71)" stroke-width="1" opacity="1" d="M 224.5 107 L 221.5 111 L 224.5 107 Z " /><path fill="rgb(255,118,71)" stroke="rgb(255,118,71)" stroke-width="1" opacity="1" d="M 254.5 107 L 251.5 111 L 254.5 107 Z " /><path fill="rgb(255,118,71)" stroke="rgb(255,118,71)" stroke-width="1" opacity="1" d="M 34.5 135 L 334 135.5 L 34.5 136 L 34.5 135 Z " /><path fill="rgb(255,98,44)" stroke="rgb(255,98,44)" stroke-width="1" opacity="1" d="M 84.5 66 L 85.5 68 L 84.5 66 Z " /><path fill="rgb(255,98,44)" stroke="rgb(255,98,44)" stroke-width="1" opacity="1" d="M 43.5 67 L 42.5 69 L 43.5 67 Z " /><path fill="rgb(255,98,44)" stroke="rgb(255,98,44)" stroke-width="1" opacity="1" d="M 51.5 67 L 52.5 69 L 51.5 67 Z " /><path fill="rgb(255,98,44)" stroke="rgb(255,98,44)" stroke-width="1" opacity="1" d="M 64.5 67 L 63.5 69 L 64.5 67 Z " /><path fill="rgb(255,98,44)" stroke="rgb(255,98,44)" stroke-width="1" opacity="1" d="M 72.5 67 L 74 68.5 L 74 92 L 72 91.5 L 73 90.5 L 73 68.5 L 72.5 67 Z " /><path fill="rgb(255,98,44)" stroke="rgb(255,98,44)" stroke-width="1" opacity="1" d="M 75.5 67 L 77 68.5 L 77 102.5 L 75 103.5 L 75.5 67 Z " /><path fill="rgb(255,98,44)" stroke="rgb(255,98,44)" stroke-width="1" opacity="1" d="M 309.5 71 L 308.5 73 L 309.5 71 Z " /><path fill="rgb(255,98,44)" stroke="rgb(255,98,44)" stroke-width="1" opacity="1" d="M 317.5 71 L 318.5 73 L 317.5 71 Z " /><path fill="rgb(255,98,44)" stroke="rgb(255,98,44)" stroke-width="1" opacity="1" d="M 88.5 75 L 96 75.5 Q 94.8 78.3 93.5 76 L 89.5 77 L 88.5 75 Z " /><path fill="rgb(255,98,44)" stroke="rgb(255,98,44)" stroke-width="1" opacity="1" d="M 115 75 L 123 75.5 Q 121.8 78.3 120.5 76 L 115.5 77 L 115 75 Z " /><path fill="rgb(255,98,44)" stroke="rgb(255,98,44)" stroke-width="1" opacity="1" d="M 145.5 75 L 149 75.5 L 146.5 77 L 145.5 75 Z " /><path fill="rgb(255,98,44)" stroke="rgb(255,98,44)" stroke-width="1" opacity="1" d="M 157.5 75 L 165 75.5 Q 163.8 78.3 162.5 76 L 158.5 77 L 157.5 75 Z " /><path fill="rgb(255,98,44)" stroke="rgb(255,98,44)" stroke-width="1" opacity="1" d="M 208.5 75 L 216 75.5 Q 214.7 78.3 213.5 76 L 209.5 77 L 208.5 75 Z " /><path fill="rgb(255,98,44)" stroke="rgb(255,98,44)" stroke-width="1" opacity="1" d="M 238 75 L 246 75.5 Q 244.8 78.3 243.5 76 L 238.5 77 L 238 75 Z " /><path fill="rgb(255,98,44)" stroke="rgb(255,98,44)" stroke-width="1" opacity="1" d="M 268.5 75 L 277 75.5 Q 275.8 78.3 274.5 76 L 269.5 77 L 268.5 75 Z " /><path fill="rgb(255,98,44)" stroke="rgb(255,98,44)" stroke-width="1" opacity="1" d="M 293 75 L 301 75.5 Q 299.8 78.3 298.5 76 L 293.5 77 L 293 75 Z " /><path fill="rgb(255,98,44)" stroke="rgb(255,98,44)" stroke-width="1" opacity="1" d="M 134.5 76 L 133.5 78 L 134.5 76 Z " /><path fill="rgb(255,98,44)" stroke="rgb(255,98,44)" stroke-width="1" opacity="1" d="M 188.5 76 L 187.5 78 L 188.5 76 Z " /><path fill="rgb(255,98,44)" stroke="rgb(255,98,44)" stroke-width="1" opacity="1" d="M 196.5 76 L 197.5 78 L 196.5 76 Z " /><path fill="rgb(255,98,44)" stroke="rgb(255,98,44)" stroke-width="1" opacity="1" d="M 226.5 76 L 227.5 78 L 226.5 76 Z " /><path fill="rgb(255,98,44)" stroke="rgb(255,98,44)" stroke-width="1" opacity="1" d="M 256.5 76 L 257.5 78 L 256.5 76 Z " /><path fill="rgb(255,98,44)" stroke="rgb(255,98,44)" stroke-width="1" opacity="1" d="M 149 77 Q 151.7 75.9 151 78.5 L 154 77.5 Q 149.8 79.7 151.5 82 L 150 81.5 L 149.5 84 L 149 77 Z " /><path fill="rgb(255,98,44)" stroke="rgb(255,98,44)" stroke-width="1" opacity="1" d="M 171 77 L 173 77.5 L 171 81.5 L 172 82.5 L 172 92.5 L 171 92.5 Q 172.5 85 170 81.5 L 171 80.5 L 169.5 78 L 171 78.5 L 171 77 Z " /><path fill="rgb(255,98,44)" stroke="rgb(255,98,44)" stroke-width="1" opacity="1" d="M 264.5 77 L 263.5 79 L 264.5 77 Z " /><path fill="rgb(255,98,44)" stroke="rgb(255,98,44)" stroke-width="1" opacity="1" d="M 289.5 77 L 286.5 81 L 289.5 77 Z " /><path fill="rgb(255,98,44)" stroke="rgb(255,98,44)" stroke-width="1" opacity="1" d="M 322.5 77 Q 325 78 324 82.5 L 323 82.5 L 322.5 77 Z " /><path fill="rgb(255,98,44)" stroke="rgb(255,98,44)" stroke-width="1" opacity="1" d="M 100.5 78 L 102.5 81 L 100.5 78 Z " /><path fill="rgb(255,98,44)" stroke="rgb(255,98,44)" stroke-width="1" opacity="1" d="M 281.5 78 L 282.5 80 L 281.5 78 Z " /><path fill="rgb(255,98,44)" stroke="rgb(255,98,44)" stroke-width="1" opacity="1" d="M 261.5 80 L 263 80.5 L 260.5 82 L 261.5 80 Z " /><path fill="rgb(255,98,44)" stroke="rgb(255,98,44)" stroke-width="1" opacity="1" d="M 283.5 82 L 287 84.5 L 286.5 86 L 284.5 83 L 283.5 82 Z " /><path fill="rgb(255,98,44)" stroke="rgb(255,98,44)" stroke-width="1" opacity="1" d="M 305.5 82 L 306 83.5 L 304 84.5 L 305.5 82 Z " /><path fill="rgb(255,98,44)" stroke="rgb(255,98,44)" stroke-width="1" opacity="1" d="M 104.5 83 L 105.5 85 L 104.5 83 Z " /><path fill="rgb(255,98,44)" stroke="rgb(255,98,44)" stroke-width="1" opacity="1" d="M 212.5 83 L 213.5 85 Q 210.7 85.7 212.5 83 Z " /><path fill="rgb(255,98,44)" stroke="rgb(255,98,44)" stroke-width="1" opacity="1" d="M 242.5 83 L 243.5 85 Q 240.7 85.7 242.5 83 Z " /><path fill="rgb(255,98,44)" stroke="rgb(255,98,44)" stroke-width="1" opacity="1" d="M 274.5 83 L 273.5 85 L 274.5 83 Z " /><path fill="rgb(255,98,44)" stroke="rgb(255,98,44)" stroke-width="1" opacity="1" d="M 298.5 83 L 298 84.5 L 297.5 87 L 297 84.5 L 298.5 83 Z " /><path fill="rgb(255,98,44)" stroke="rgb(255,98,44)" stroke-width="1" opacity="1" d="M 146.5 84 L 147.5 86 Q 144.7 86.7 146.5 84 Z " /><path fill="rgb(255,98,44)" stroke="rgb(255,98,44)" stroke-width="1" opacity="1" d="M 161 84 Q 163.7 82.9 163 85.5 L 161 86.5 L 161 84 Z " /><path fill="rgb(255,98,44)" stroke="rgb(255,98,44)" stroke-width="1" opacity="1" d="M 319.5 84 L 322 84.5 L 319.5 85 L 319.5 84 Z " /><path fill="rgb(255,98,44)" stroke="rgb(255,98,44)" stroke-width="1" opacity="1" d="M 215.5 85 L 216.5 87 L 215.5 85 Z " /><path fill="rgb(255,98,44)" stroke="rgb(255,98,44)" stroke-width="1" opacity="1" d="M 245.5 85 L 246.5 87 L 245.5 85 Z " /><path fill="rgb(255,98,44)" stroke="rgb(255,98,44)" stroke-width="1" opacity="1" d="M 299.5 85 L 303 87.5 L 301.5 87 L 299.5 85 Z " /><path fill="rgb(255,98,44)" stroke="rgb(255,98,44)" stroke-width="1" opacity="1" d="M 85.5 86 L 86.5 88 L 85.5 86 Z " /><path fill="rgb(255,98,44)" stroke="rgb(255,98,44)" stroke-width="1" opacity="1" d="M 164.5 86 L 167 87.5 L 165.5 87 L 164.5 86 Z " /><path fill="rgb(255,98,44)" stroke="rgb(255,98,44)" stroke-width="1" opacity="1" d="M 238.5 87 L 239 89.5 L 238 89.5 L 238.5 87 Z " /><path fill="rgb(255,98,44)" stroke="rgb(255,98,44)" stroke-width="1" opacity="1" d="M 150.5 88 L 153 89.5 L 151.5 90 L 150.5 88 Z " /><path fill="rgb(255,98,44)" stroke="rgb(255,98,44)" stroke-width="1" opacity="1" d="M 198.5 88 L 199 92.5 L 198 92.5 L 198.5 88 Z " /><path fill="rgb(255,98,44)" stroke="rgb(255,98,44)" stroke-width="1" opacity="1" d="M 286.5 88 L 288 88.5 L 287 93 L 285 92.5 L 286 90.5 Q 283.8 89.3 286.5 88 Z " /><path fill="rgb(255,98,44)" stroke="rgb(255,98,44)" stroke-width="1" opacity="1" d="M 217.5 89 L 218 91.5 L 217 91.5 L 217.5 89 Z " /><path fill="rgb(255,98,44)" stroke="rgb(255,98,44)" stroke-width="1" opacity="1" d="M 143.5 90 L 144 103.5 L 143 103.5 L 143.5 90 Z " /><path fill="rgb(255,98,44)" stroke="rgb(255,98,44)" stroke-width="1" opacity="1" d="M 238.5 91 L 239 93.5 L 238 93.5 L 238.5 91 Z " /><path fill="rgb(255,98,44)" stroke="rgb(255,98,44)" stroke-width="1" opacity="1" d="M 306.5 91 L 308 94 L 306 93.5 L 306.5 91 Z " /><path fill="rgb(255,98,44)" stroke="rgb(255,98,44)" stroke-width="1" opacity="1" d="M 132.5 92 L 131.5 94 L 132.5 92 Z " /><path fill="rgb(255,98,44)" stroke="rgb(255,98,44)" stroke-width="1" opacity="1" d="M 291.5 93 L 293 95.5 L 291 96 L 291.5 93 Z " /><path fill="rgb(255,98,44)" stroke="rgb(255,98,44)" stroke-width="1" opacity="1" d="M 115.5 94 L 116.5 96 L 115.5 94 Z " /><path fill="rgb(255,98,44)" stroke="rgb(255,98,44)" stroke-width="1" opacity="1" d="M 182.5 94 L 181.5 96 L 182.5 94 Z " /><path fill="rgb(255,98,44)" stroke="rgb(255,98,44)" stroke-width="1" opacity="1" d="M 216.5 94 L 215.5 96 L 216.5 94 Z " /><path fill="rgb(255,98,44)" stroke="rgb(255,98,44)" stroke-width="1" opacity="1" d="M 246.5 94 L 245.5 96 L 246.5 94 Z " /><path fill="rgb(255,98,44)" stroke="rgb(255,98,44)" stroke-width="1" opacity="1" d="M 277.5 94 L 279 94.5 L 276.5 96 L 277.5 94 Z " /><path fill="rgb(255,98,44)" stroke="rgb(255,98,44)" stroke-width="1" opacity="1" d="M 289.5 94 L 287.5 97 L 289.5 94 Z " /><path fill="rgb(255,98,44)" stroke="rgb(255,98,44)" stroke-width="1" opacity="1" d="M 129.5 95 L 133 98.5 L 131.5 100 L 132 98.5 L 129.5 95 Z " /><path fill="rgb(255,98,44)" stroke="rgb(255,98,44)" stroke-width="1" opacity="1" d="M 152.5 95 L 151 97.5 Q 151.8 99.8 149.5 99 L 152.5 95 Z " /><path fill="rgb(255,98,44)" stroke="rgb(255,98,44)" stroke-width="1" opacity="1" d="M 160.5 95 L 158.5 98 L 158 96 L 160.5 95 Z " /><path fill="rgb(255,98,44)" stroke="rgb(255,98,44)" stroke-width="1" opacity="1" d="M 238.5 95 L 239.5 97 L 238.5 95 Z " /><path fill="rgb(255,98,44)" stroke="rgb(255,98,44)" stroke-width="1" opacity="1" d="M 296.5 95 L 297.5 97 L 295.5 97 L 294 96.5 L 296.5 95 Z " /><path fill="rgb(255,98,44)" stroke="rgb(255,98,44)" stroke-width="1" opacity="1" d="M 43.5 96 L 44 98 L 46 98.5 L 44.5 99 L 43.5 96 Z " /><path fill="rgb(255,98,44)" stroke="rgb(255,98,44)" stroke-width="1" opacity="1" d="M 103.5 96 L 107 96.5 L 103.5 97 L 103.5 96 Z " /><path fill="rgb(255,98,44)" stroke="rgb(255,98,44)" stroke-width="1" opacity="1" d="M 119 96 L 121 96.5 L 119 97.5 L 119 96 Z " /><path fill="rgb(255,98,44)" stroke="rgb(255,98,44)" stroke-width="1" opacity="1" d="M 212 96 L 214 96.5 L 212 97.5 L 212 96 Z " /><path fill="rgb(255,98,44)" stroke="rgb(255,98,44)" stroke-width="1" opacity="1" d="M 242 96 L 244 96.5 L 242 97.5 L 242 96 Z " /><path fill="rgb(255,98,44)" stroke="rgb(255,98,44)" stroke-width="1" opacity="1" d="M 272.5 96 Q 274.8 95.3 274 97.5 L 272.5 96 Z " /><path fill="rgb(255,98,44)" stroke="rgb(255,98,44)" stroke-width="1" opacity="1" d="M 308 96 L 310 96.5 L 309 99 L 306 98.5 L 308 98 L 308 96 Z " /><path fill="rgb(255,98,44)" stroke="rgb(255,98,44)" stroke-width="1" opacity="1" d="M 320.5 96 L 323 96.5 L 320.5 97 L 320.5 96 Z " /><path fill="rgb(255,98,44)" stroke="rgb(255,98,44)" stroke-width="1" opacity="1" d="M 172.5 98 L 174 98.5 L 170.5 101 L 172.5 98 Z " /><path fill="rgb(255,98,44)" stroke="rgb(255,98,44)" stroke-width="1" opacity="1" d="M 260.5 99 L 263 100 L 264 102.5 L 260.5 99 Z " /><path fill="rgb(255,98,44)" stroke="rgb(255,98,44)" stroke-width="1" opacity="1" d="M 149.5 100 Q 151.8 99.3 151 101.5 L 152.5 104 L 149.5 100 Z " /><path fill="rgb(255,98,44)" stroke="rgb(255,98,44)" stroke-width="1" opacity="1" d="M 284.5 100 L 286 100.5 L 283.5 102 L 284.5 100 Z " /><path fill="rgb(255,98,44)" stroke="rgb(255,98,44)" stroke-width="1" opacity="1" d="M 309.5 100 L 313 102.5 L 311.5 102 L 309.5 100 Z " /><path fill="rgb(255,98,44)" stroke="rgb(255,98,44)" stroke-width="1" opacity="1" d="M 101.5 101 L 100.5 103 L 101.5 101 Z " /><path fill="rgb(255,98,44)" stroke="rgb(255,98,44)" stroke-width="1" opacity="1" d="M 227.5 102 L 228 104.5 L 227 104.5 L 227.5 102 Z " /><path fill="rgb(255,98,44)" stroke="rgb(255,98,44)" stroke-width="1" opacity="1" d="M 133.5 103 L 134.5 105 L 133.5 103 Z " /><path fill="rgb(255,98,44)" stroke="rgb(255,98,44)" stroke-width="1" opacity="1" d="M 197.5 103 L 196.5 105 L 197.5 103 Z " /><path fill="rgb(255,98,44)" stroke="rgb(255,98,44)" stroke-width="1" opacity="1" d="M 323.5 103 L 321.5 106 L 315 105.5 Q 316.3 102.8 317.5 105 Q 322.1 105.6 323.5 103 Z " /><path fill="rgb(255,98,44)" stroke="rgb(255,98,44)" stroke-width="1" opacity="1" d="M 54.5 104 Q 55.7 106.3 60.5 105 Q 61.8 102.8 63 105.5 L 53.5 106 L 54.5 104 Z " /><path fill="rgb(255,98,44)" stroke="rgb(255,98,44)" stroke-width="1" opacity="1" d="M 86.5 104 L 89.5 105 L 94.5 104 L 95.5 106 L 87.5 106 L 86.5 104 Z " /><path fill="rgb(255,98,44)" stroke="rgb(255,98,44)" stroke-width="1" opacity="1" d="M 116.5 104 L 121.5 105 Q 122.8 102.8 124 105.5 L 115.5 106 L 116.5 104 Z " /><path fill="rgb(255,98,44)" stroke="rgb(255,98,44)" stroke-width="1" opacity="1" d="M 157.5 104 L 162.5 105 Q 163.8 102.8 165 105.5 L 156.5 106 L 157.5 104 Z " /><path fill="rgb(255,98,44)" stroke="rgb(255,98,44)" stroke-width="1" opacity="1" d="M 179.5 104 L 183.5 105 Q 184.8 102.8 186 105.5 L 179 106 L 179.5 104 Z " /><path fill="rgb(255,98,44)" stroke="rgb(255,98,44)" stroke-width="1" opacity="1" d="M 203.5 104 L 206 104.5 L 202.5 106 L 203.5 104 Z " /><path fill="rgb(255,98,44)" stroke="rgb(255,98,44)" stroke-width="1" opacity="1" d="M 233.5 104 L 236 104.5 L 232.5 106 L 233.5 104 Z " /><path fill="rgb(255,98,44)" stroke="rgb(255,98,44)" stroke-width="1" opacity="1" d="M 269.5 104 L 274.5 105 Q 275.8 102.8 277 105.5 L 269 106 L 269.5 104 Z " /><path fill="rgb(255,98,44)" stroke="rgb(255,98,44)" stroke-width="1" opacity="1" d="M 293.5 104 L 298.5 105 L 300 104.5 L 299.5 106 L 292.5 106 L 293.5 104 Z " /><path fill="rgb(255,98,44)" stroke="rgb(255,98,44)" stroke-width="1" opacity="1" d="M 225.5 108 L 222.5 112 L 225.5 108 Z " /><path fill="rgb(255,98,44)" stroke="rgb(255,98,44)" stroke-width="1" opacity="1" d="M 255.5 108 L 252.5 112 L 255.5 108 Z " /><path fill="rgb(255,98,44)" stroke="rgb(255,98,44)" stroke-width="1" opacity="1" d="M 202.5 111 Q 204.8 110.3 204 112.5 L 202.5 111 Z " /><path fill="rgb(255,99,45)" stroke="rgb(255,99,45)" stroke-width="1" opacity="1" d="M 34.5 46 L 334 46.5 L 333 47.5 L 333 133.5 L 333.5 135 L 34 134.5 L 35 133.5 L 35 47.5 L 34.5 46 Z M 77 66 L 77 68 L 76 67 L 75 104 L 77 103 L 77 105 Q 84 106 87 103 L 88 106 Q 96 108 99 104 L 99 102 L 101 103 L 104 97 Q 107 96 106 99 Q 107 101 109 99 L 108 101 Q 109 103 111 101 L 110 103 L 116 106 Q 124 107 128 104 Q 132 102 129 101 L 133 99 L 133 104 L 135 105 L 142 105 L 143 89 L 144 104 L 144 88 L 150 84 L 150 89 Q 152 93 154 90 L 155 93 L 157 92 L 156 94 L 162 96 L 162 97 L 158 96 L 156 96 L 156 94 L 153 95 Q 149 95 149 101 L 157 106 Q 165 108 168 104 Q 170 103 168 102 L 173 99 L 173 101 L 180 106 Q 186 107 188 104 L 189 105 L 197 105 L 196 104 L 198 104 L 199 97 L 199 99 L 202 100 L 201 102 L 204 104 Q 201 105 201 111 L 206 114 L 219 114 L 221 113 L 221 111 L 223 112 Q 229 108 229 97 L 229 99 L 234 103 L 235 103 Q 231 105 231 111 Q 232 113 234 111 L 233 113 L 236 114 L 249 114 L 251 113 L 251 111 L 253 112 Q 259 108 259 96 L 259 98 L 261 98 L 260 100 L 270 106 L 279 105 L 278 104 L 280 104 L 287 100 L 286 102 L 293 106 L 302 105 L 302 103 L 304 104 L 307 99 Q 310 98 309 101 Q 311 107 322 106 Q 326 104 324 98 L 320 98 L 323 97 L 323 96 L 319 96 L 319 85 L 322 85 L 319 84 L 324 83 Q 325 78 322 76 Q 317 77 319 73 L 318 73 L 318 72 L 310 71 L 306 79 L 304 79 L 304 78 L 301 75 L 292 76 L 292 78 L 290 77 L 286 83 L 283 80 L 277 75 Q 268 74 265 77 L 259 85 L 258 77 L 257 103 L 256 78 L 257 76 Q 250 74 249 77 L 246 75 L 237 76 L 237 78 L 235 77 L 231 81 L 232 82 L 231 81 L 229 84 L 228 78 L 227 78 L 227 76 Q 220 74 219 77 L 216 75 L 207 76 L 207 78 L 205 77 Q 202 78 204 80 L 203 79 L 199 84 L 198 78 L 197 78 L 197 77 L 189 76 L 189 78 L 188 77 L 187 95 L 183 96 L 182 94 L 182 78 L 181 76 Q 174 75 171 77 L 171 79 L 165 75 Q 155 74 152 79 L 151 77 L 147 77 L 149 76 L 149 75 Q 144 74 144 77 L 135 76 L 133 78 L 133 85 L 132 84 L 130 84 L 131 82 Q 130 79 129 81 Q 126 80 128 79 L 123 75 L 114 76 L 114 78 L 112 77 L 108 81 L 109 82 L 108 81 L 106 84 L 102 83 L 103 81 L 96 75 Q 89 73 88 76 L 86 76 L 86 68 L 85 66 L 77 66 Z M 44 67 L 44 69 L 42 69 L 42 95 L 46 102 L 54 106 Q 63 107 67 104 Q 69 103 67 102 L 69 102 Q 71 101 69 100 L 71 100 L 74 94 L 74 92 L 74 68 L 73 91 L 72 91 L 72 69 L 73 68 L 65 67 L 65 69 L 63 69 L 63 93 L 64 94 L 63 93 L 59 96 L 57 95 L 54 96 L 54 95 L 53 93 L 53 69 L 52 69 L 52 68 L 44 67 Z " /><path fill="rgb(255,99,45)" stroke="rgb(255,99,45)" stroke-width="1" opacity="1" d="M 90.5 76 L 94 76.5 L 90.5 77 L 90.5 76 Z " /><path fill="rgb(255,99,45)" stroke="rgb(255,99,45)" stroke-width="1" opacity="1" d="M 116.5 76 L 121 76.5 L 116.5 77 L 116.5 76 Z " /><path fill="rgb(255,99,45)" stroke="rgb(255,99,45)" stroke-width="1" opacity="1" d="M 159.5 76 L 163 76.5 L 159.5 77 L 159.5 76 Z " /><path fill="rgb(255,99,45)" stroke="rgb(255,99,45)" stroke-width="1" opacity="1" d="M 210.5 76 L 214 76.5 L 210.5 77 L 210.5 76 Z " /><path fill="rgb(255,99,45)" stroke="rgb(255,99,45)" stroke-width="1" opacity="1" d="M 239.5 76 L 244 76.5 L 239.5 77 L 239.5 76 Z " /><path fill="rgb(255,99,45)" stroke="rgb(255,99,45)" stroke-width="1" opacity="1" d="M 270.5 76 L 275 76.5 L 270.5 77 L 270.5 76 Z " /><path fill="rgb(255,99,45)" stroke="rgb(255,99,45)" stroke-width="1" opacity="1" d="M 294.5 76 L 299 76.5 L 294.5 77 L 294.5 76 Z " /><path fill="rgb(255,99,45)" stroke="rgb(255,99,45)" stroke-width="1" opacity="1" d="M 169.5 82 Q 172.8 83.8 171 90.5 L 170 90.5 Q 170.8 88.3 168.5 89 Q 164 87 167.5 85 L 170 83.5 L 169.5 82 Z " /><path fill="rgb(255,99,45)" stroke="rgb(255,99,45)" stroke-width="1" opacity="1" d="M 306.5 83 L 308 83.5 L 308 85.5 L 307.5 92 L 305 91.5 Q 307.3 90.3 304.5 89 L 303 89.5 Q 305.5 88 302 86.5 L 303.5 85 L 306.5 83 Z " /><path fill="rgb(255,99,45)" stroke="rgb(255,99,45)" stroke-width="1" opacity="1" d="M 118.5 84 L 122 85.5 L 116.5 86 L 116.5 85 L 118.5 84 Z " /><path fill="rgb(255,99,45)" stroke="rgb(255,99,45)" stroke-width="1" opacity="1" d="M 271.5 84 L 275 85.5 L 269.5 86 L 269.5 85 L 271.5 84 Z " /><path fill="rgb(255,99,45)" stroke="rgb(255,99,45)" stroke-width="1" opacity="1" d="M 88.5 85 Q 94 84 95 87.5 Q 93.5 93 96 94.5 Q 94.3 92.9 92.5 96 Q 88 97 87 94.5 L 86 88.5 L 88.5 85 Z " /><path fill="rgb(255,99,45)" stroke="rgb(255,99,45)" stroke-width="1" opacity="1" d="M 210.5 85 Q 216 84 217 87.5 Q 218.5 94.5 214.5 96 L 209.5 97 L 209 94.5 L 208 88.5 L 210.5 85 Z " /><path fill="rgb(255,99,45)" stroke="rgb(255,99,45)" stroke-width="1" opacity="1" d="M 240.5 85 Q 246 84 247 87.5 Q 248.5 94.5 244.5 96 Q 240 97 239 94.5 L 238 90.5 L 240.5 85 Z " /><path fill="rgb(255,99,45)" stroke="rgb(255,99,45)" stroke-width="1" opacity="1" d="M 104.5 88 L 105.5 90 L 104.5 88 Z " /><path fill="rgb(255,99,45)" stroke="rgb(255,99,45)" stroke-width="1" opacity="1" d="M 218.5 89 L 219 91.5 L 218 91.5 L 218.5 89 Z " /><path fill="rgb(255,99,45)" stroke="rgb(255,99,45)" stroke-width="1" opacity="1" d="M 287.5 90 Q 289.3 93.1 291 91.5 L 290.5 94 L 286 97.5 L 286.5 99 L 282.5 94 L 287 93 L 287.5 90 Z " /><path fill="rgb(255,99,45)" stroke="rgb(255,99,45)" stroke-width="1" opacity="1" d="M 105.5 91 L 104.5 93 L 105.5 91 Z " /><path fill="rgb(255,99,45)" stroke="rgb(255,99,45)" stroke-width="1" opacity="1" d="M 132.5 93 L 133 97.5 L 130 97.5 Q 132.3 96.3 129.5 95 L 128 94.5 L 132.5 93 Z " /><path fill="rgb(255,99,45)" stroke="rgb(255,99,45)" stroke-width="1" opacity="1" d="M 294.5 93 L 294.5 95 L 297 96.5 L 295.5 96 L 292 94.5 L 294.5 93 Z " /><path fill="rgb(255,99,45)" stroke="rgb(255,99,45)" stroke-width="1" opacity="1" d="M 116.5 94 L 124 94.5 Q 122.8 97.3 117.5 96 L 116.5 94 Z " /><path fill="rgb(255,99,45)" stroke="rgb(255,99,45)" stroke-width="1" opacity="1" d="M 269.5 94 L 277 94.5 L 275.5 96 Q 270.8 94.7 269.5 97 L 269.5 94 Z " /><path fill="rgb(255,99,45)" stroke="rgb(255,99,45)" stroke-width="1" opacity="1" d="M 55.5 104 L 61 104.5 L 55.5 105 L 55.5 104 Z " /><path fill="rgb(255,99,45)" stroke="rgb(255,99,45)" stroke-width="1" opacity="1" d="M 89.5 104 L 94 104.5 L 89.5 105 L 89.5 104 Z " /><path fill="rgb(255,99,45)" stroke="rgb(255,99,45)" stroke-width="1" opacity="1" d="M 117.5 104 L 122 104.5 L 117.5 105 L 117.5 104 Z " /><path fill="rgb(255,99,45)" stroke="rgb(255,99,45)" stroke-width="1" opacity="1" d="M 158.5 104 L 163 104.5 L 158.5 105 L 158.5 104 Z " /><path fill="rgb(255,99,45)" stroke="rgb(255,99,45)" stroke-width="1" opacity="1" d="M 180.5 104 L 184 104.5 L 180.5 105 L 180.5 104 Z " /><path fill="rgb(255,99,45)" stroke="rgb(255,99,45)" stroke-width="1" opacity="1" d="M 209.5 104 L 214 104.5 L 209.5 105 L 209.5 104 Z " /><path fill="rgb(255,99,45)" stroke="rgb(255,99,45)" stroke-width="1" opacity="1" d="M 239.5 104 L 244 104.5 L 239.5 105 L 239.5 104 Z " /><path fill="rgb(255,99,45)" stroke="rgb(255,99,45)" stroke-width="1" opacity="1" d="M 270.5 104 L 275 104.5 L 270.5 105 L 270.5 104 Z " /><path fill="rgb(255,99,45)" stroke="rgb(255,99,45)" stroke-width="1" opacity="1" d="M 294.5 104 L 299 104.5 L 294.5 105 L 294.5 104 Z " /><path fill="rgb(255,99,45)" stroke="rgb(255,99,45)" stroke-width="1" opacity="1" d="M 317.5 104 L 321 104.5 L 317.5 105 L 317.5 104 Z " /><path fill="rgb(255,248,246)" stroke="rgb(255,248,246)" stroke-width="1" opacity="1" d="M 77 68 L 84 68 L 84 78.5 L 85.5 79 Q 87.8 75.8 94.5 77 L 102 82.5 Q 105.3 86.2 104 94.5 L 98.5 102 Q 95.5 105 88.5 104 L 84.5 102 L 83.5 103 L 77 103 L 77 68 Z M 89 83 L 86 84 L 84 88 L 84 94 L 86 97 L 89 98 L 95 97 L 97 93 L 96 87 Q 95 82 89 83 Z " /><path fill="rgb(255,248,246)" stroke="rgb(255,248,246)" stroke-width="1" opacity="1" d="M 44 69 L 50.5 69 L 51 69.5 L 51 92.5 L 54.5 97 L 58.5 98 L 64 94.5 L 65 91.5 L 65 69 L 71.5 69 L 72 69.5 L 72 93.5 Q 70.8 99.3 66.5 102 Q 62.5 105 54.5 104 Q 48.8 102.8 46 98.5 L 44 94.5 L 44 69 Z " /><path fill="rgb(255,248,246)" stroke="rgb(255,248,246)" stroke-width="1" opacity="1" d="M 310 72 Q 315.4 70.5 317 73.5 L 317 78 L 322 78 L 322 83 L 317 83 L 317 96.5 Q 318.2 99 322 98 L 322 104 L 315.5 104 L 312 101.5 L 310 97.5 L 310 83 L 307 83 L 307 78 L 310 78 L 310 72 Z " /><path fill="rgb(255,248,246)" stroke="rgb(255,248,246)" stroke-width="1" opacity="1" d="M 115.5 77 Q 125.9 75.6 129 81.5 Q 132.2 85 131 92 L 113.5 92 L 113 93.5 L 115.5 97 L 122.5 98 L 126.5 95 L 130 99.5 Q 126.3 104.8 116.5 104 Q 110.8 102.8 108 98.5 Q 105.1 94.9 106 87.5 Q 107.3 81.8 111.5 79 L 115.5 77 Z M 119 82 L 117 83 L 113 87 L 115 88 L 124 88 L 124 86 L 119 82 Z " /><path fill="rgb(255,248,246)" stroke="rgb(255,248,246)" stroke-width="1" opacity="1" d="M 146.5 77 L 149 77 L 149 82.5 L 142 87.5 L 142 103 L 135 103 L 135 78.5 L 135.5 78 L 142 78 L 142.5 80 L 146.5 77 Z " /><path fill="rgb(255,248,246)" stroke="rgb(255,248,246)" stroke-width="1" opacity="1" d="M 157.5 77 Q 167.6 75.4 170 81.5 L 165.5 85 L 160.5 82 L 158 83 L 160.5 87 Q 167.1 87.9 170 92.5 Q 171.8 100.3 167.5 102 Q 164.5 105 157.5 104 L 151 99.5 L 155.5 96 L 161.5 99 Q 166.5 96.5 161.5 94 L 153 89.5 L 152 81.5 L 157.5 77 Z " /><path fill="rgb(255,248,246)" stroke="rgb(255,248,246)" stroke-width="1" opacity="1" d="M 208.5 77 Q 215.5 76 218.5 79 L 219.5 78 L 226 78 L 226 103.5 L 220.5 111 Q 216.9 113.9 209.5 113 L 203 111 L 205.5 105 Q 208.4 107.6 214.5 107 L 219 103.5 L 218.5 101 Q 216.3 105.3 208.5 104 L 201 98.5 Q 198.1 94.9 199 87.5 Q 200.3 81.8 204.5 79 L 208.5 77 Z M 211 83 L 206 89 Q 205 96 211 98 L 217 97 L 219 94 L 218 86 Q 216 82 211 83 Z " /><path fill="rgb(255,248,246)" stroke="rgb(255,248,246)" stroke-width="1" opacity="1" d="M 238.5 77 Q 245.5 76 248.5 79 L 249.5 78 L 256 78 L 256 103.5 L 250.5 111 Q 246.9 113.9 239.5 113 L 233 111 L 234 105 L 244.5 107 L 249 103.5 Q 249.8 101.3 247.5 102 Q 245.2 105.2 238.5 104 L 231 98.5 Q 228.1 94.9 229 87.5 Q 230.3 81.8 234.5 79 L 238.5 77 Z M 241 83 L 236 89 Q 235 96 241 98 L 247 97 L 249 94 L 248 86 Q 246 82 241 83 Z " /><path fill="rgb(255,248,246)" stroke="rgb(255,248,246)" stroke-width="1" opacity="1" d="M 269.5 77 Q 280.1 76 283 82.5 L 285 92 L 267.5 92 L 267 94.5 Q 268.3 99.2 275.5 98 L 279.5 95 L 284 98.5 L 276.5 104 L 269.5 104 L 262 99.5 L 259 89.5 L 263.5 80 L 269.5 77 Z M 272 82 L 270 83 Q 266 84 267 88 L 277 88 L 278 87 L 277 85 L 272 82 Z " /><path fill="rgb(255,248,246)" stroke="rgb(255,248,246)" stroke-width="1" opacity="1" d="M 293.5 77 Q 302.2 75.8 305 80.5 L 301.5 85 L 296.5 82 L 294 83 Q 292.5 86.8 295.5 86 L 305 91.5 L 306 98.5 L 303.5 102 Q 300.2 105.2 292.5 104 L 287 100.5 Q 285.9 97.2 288.5 98 Q 290 94.5 291.5 97 L 297.5 99 Q 302.5 96.5 297.5 94 L 288 88.5 L 287 83.5 L 289 79 L 293.5 77 Z " /><path fill="rgb(255,248,246)" stroke="rgb(255,248,246)" stroke-width="1" opacity="1" d="M 173 78 L 180 78 L 180 93.5 L 181 97 L 186.5 98 L 189 95.5 L 189 78 L 195.5 78 L 196 78.5 L 196 103 L 187.5 102 Q 185.5 105 179.5 104 L 175 100.5 L 173 94.5 L 173 78 Z " /></svg>